<svg width="16" height="21" viewBox="0 0 16 21" fill="none" xmlns="http://www.w3.org/2000/svg">
<g id="Frame">
<path id="Vector" d="M14.4174 17.3715L9.96011 12.5085C10.9644 11.4578 11.5164 10.0838 11.5164 8.625C11.5164 7.12275 10.9314 5.70975 9.86861 4.64775C8.80586 3.58575 7.39361 3 5.89136 3C4.38911 3 2.97611 3.585 1.91411 4.64775C0.852107 5.7105 0.266357 7.12275 0.266357 8.625C0.266357 10.1273 0.851357 11.5403 1.91411 12.6023C2.97686 13.6643 4.38911 14.25 5.89136 14.25C7.18586 14.25 8.41286 13.8158 9.40736 13.0162L13.8646 17.8785C13.9389 17.9595 14.0394 18 14.1414 18C14.2321 18 14.3229 17.9677 14.3949 17.9017C14.5479 17.7615 14.5576 17.5245 14.4181 17.3722L14.4174 17.3715ZM1.01561 8.625C1.01561 5.937 3.20261 3.75 5.89061 3.75C8.57861 3.75 10.7656 5.937 10.7656 8.625C10.7656 11.313 8.57861 13.5 5.89061 13.5C3.20261 13.5 1.01561 11.313 1.01561 8.625Z" fill="black"/>
</g>
</svg>
