<svg width="17" height="23" viewBox="0 0 17 23" fill="none" xmlns="http://www.w3.org/2000/svg">
<g id="Frame" clip-path="url(#clip0_1_44)">
<g id="Group">
<path id="Vector" d="M2.58524 5.2771C2.58524 5.2771 2.98472 4.86692 3.78369 4.04656C4.58265 3.22619 6.1235 2.81601 8.40625 2.81601C10.689 2.81601 12.6293 3.63638 14.2273 5.2771C15.8252 6.91783 16.6242 8.9081 16.6242 11.2479V17.7966C16.6242 18.567 16.3531 19.2304 15.8109 19.7868C15.2688 20.3432 14.6267 20.6215 13.8849 20.6215H11.1456V13.0884H14.7837V11.2479C14.7837 9.42172 14.1631 7.87373 12.9218 6.60395C11.6806 5.33417 10.1754 4.69928 8.40625 4.69928C6.63712 4.69928 5.13193 5.33417 3.89069 6.60395C2.64944 7.87373 2.02882 9.42172 2.02882 11.2479V13.0884H5.66695V20.6215H2.92765C2.18576 20.6215 1.54374 20.3432 1.00158 19.7868C0.459431 19.2304 0.188354 18.567 0.188354 17.7966V11.2479C0.188354 8.9081 0.987317 6.91783 2.58524 5.2771Z" fill="black"/>
</g>
</g>
<defs>
<clipPath id="clip0_1_44">
<rect width="16.5" height="22" fill="white" transform="matrix(1 0 0 -1 0.15625 22.7188)"/>
</clipPath>
</defs>
</svg>
