<svg width="17" height="23" viewBox="0 0 17 23" fill="none" xmlns="http://www.w3.org/2000/svg">
<g id="Frame" clip-path="url(#clip0_1_225)">
<g id="Group">
<path id="Vector" d="M2.64774 5.49597C2.64774 5.49597 3.04722 5.08579 3.84619 4.26543C4.64515 3.44507 6.186 3.03489 8.46875 3.03489C10.7515 3.03489 12.6918 3.85525 14.2898 5.49597C15.8877 7.1367 16.6867 9.12697 16.6867 11.4668V18.0154C16.6867 18.7859 16.4156 19.4493 15.8734 20.0057C15.3313 20.5621 14.6892 20.8403 13.9474 20.8403H11.2081V13.3073H14.8462V11.4668C14.8462 9.64059 14.2256 8.0926 12.9843 6.82282C11.7431 5.55304 10.2379 4.91815 8.46875 4.91815C6.69962 4.91815 5.19443 5.55304 3.95319 6.82282C2.71194 8.0926 2.09132 9.64059 2.09132 11.4668V13.3073H5.72945V20.8403H2.99015C2.24826 20.8403 1.60624 20.5621 1.06408 20.0057C0.521931 19.4493 0.250854 18.7859 0.250854 18.0154V11.4668C0.250854 9.12697 1.04982 7.1367 2.64774 5.49597Z" fill="black"/>
</g>
</g>
<defs>
<clipPath id="clip0_1_225">
<rect width="16.5" height="22" fill="white" transform="matrix(1 0 0 -1 0.21875 22.9375)"/>
</clipPath>
</defs>
</svg>
